<svg xmlns="http://www.w3.org/2000/svg" viewBox="0 0 148 148"><defs><style>.cls-1{fill:#98e7f4;}.cls-2{fill:#cdf3fc;}.cls-3{fill:#f4b162;}.cls-4{fill:#ffdfc0;}.cls-5{fill:#ffc994;}.cls-6{fill:#876140;}.cls-7{opacity:0.64;}</style></defs><g id="OBJECTS"><path class="cls-1" d="M98,142.11,92.67,123.7c-1.92-6.67-9.55-11.42-18.35-11.42h0c-8.8,0-16.43,4.75-18.35,11.42l-5.31,18.41h.06a1.2,1.2,0,0,0-.12.52c0,3,10.61,5.37,23.69,5.37S98,145.59,98,142.63a1.35,1.35,0,0,0-.11-.52Z"/><path class="cls-2" d="M38.8,10.27V88.62a35.49,35.49,0,0,0,35.49,35.49h0a35.5,35.5,0,0,0,35.5-35.49V10.27Z"/><path class="cls-3" d="M45.21,11.53v75a29.08,29.08,0,0,0,29.08,29.08h0a29.08,29.08,0,0,0,29.08-29.08v-75Z"/><path class="cls-4" d="M45.59,28.17a14.57,14.57,0,0,0,1.49.84l.81.37.76.3A40.61,40.61,0,0,0,53,31a87.66,87.66,0,0,0,16.78,2.44,101.74,101.74,0,0,0,13.74-.39c6.64-.48,13.3-1.08,19.88-2.18V11.53H45.21V27.91Z"/><ellipse class="cls-1" cx="74.29" cy="10.49" rx="35.52" ry="10.49"/><ellipse class="cls-5" cx="74.29" cy="10.49" rx="28.72" ry="8.48"/><path class="cls-6" d="M70.6,9.8c-1.56.1-3.13.28-4.68.47-.61.07-2,.11-1.92,1,0,.72,1.09,1,1.63,1.23a14.18,14.18,0,0,0,3.89.56c3.26.13,6.53.07,9.79,0,2.25,0,5.79.44,7.64-1.19,1.54-1.36-.25-2.58-1.55-3C82.64,8,79.46,8,76.59,7.79c-3.14-.2-6.29-.25-9.43-.14-1.53,0-3.06.14-4.59.28a26.1,26.1,0,0,0-4.32.49c-3,.78-2.88,4.77-.31,6a12,12,0,0,0,3.41.76q2.13.29,4.26.45c3.11.24,6.22.31,9.33.35s6.41.16,9.6.09a20.39,20.39,0,0,0,7.89-1.41c1.68-.76,3.44-2.21,2.82-4.27s-3-3.21-4.88-3.87a39.4,39.4,0,0,0-9.59-1.71,83.16,83.16,0,0,0-10.35-.27c-6.14.24-12.68,1-18.3,3.66-.52.24-.15,1.13.4.94A64.44,64.44,0,0,1,79.47,5.86a60.07,60.07,0,0,1,7.31.91c2.18.43,4.75,1,6.4,2.63.75.72,1.35,1.72.71,2.72a5.12,5.12,0,0,1-2.63,1.7,21.53,21.53,0,0,1-7.18,1c-4.87.07-9.78,0-14.64-.21-2.37-.09-4.74-.23-7.09-.51-1.53-.19-4.46-.18-5.13-2a2.06,2.06,0,0,1,1.33-2.63,19.67,19.67,0,0,1,3.35-.42c1.28-.13,2.58-.23,3.87-.31a91,91,0,0,1,15,.37,25.56,25.56,0,0,1,4,.63,3.65,3.65,0,0,1,1.4.56c.87.77-.52,1.25-1.19,1.44a17,17,0,0,1-4.22.33l-4.41.07c-2.69,0-5.42.16-8.11,0a11.71,11.71,0,0,1-2-.32,3.22,3.22,0,0,1-.71-.22c-.57-.42-.2-.49.28-.61a32.49,32.49,0,0,1,4.81-.74c.28,0,.29-.46,0-.44Z"/><g class="cls-7"><path class="cls-2" d="M97.25,49.93c3.06-.54,5.72-2.74,8.5-4.08,1.79-.86,7.26-3.52,9.24-2.3,1.76,1.07,3.18,5.53,3.86,7.37a29.09,29.09,0,0,1,1.84,9c.18,5.82-1.42,11.53-5.53,15.79-4.59,4.74-9.44,5.43-15.69,6-6.76.63-8.25,9.58-1.6,11.89,9.26,3.23,20.58-2.5,26.77-9.31,7.15-7.88,9.71-18.32,8.15-28.73-1.29-8.62-6.23-22.86-16.39-23.94-8.57-.91-22.85,5.18-23.7,14.87-.22,2.52,2.46,3.82,4.55,3.46Z"/></g></g></svg>