<svg xmlns="http://www.w3.org/2000/svg" viewBox="0 0 148 148"><defs><style>.cls-1{fill:#75c5d8;}.cls-2{fill:#98e7f4;}.cls-3{fill:#7c4f3c;}.cls-4{fill:#936555;}.cls-5{opacity:0.5;}.cls-6{fill:#b9f3f9;}.cls-7{fill:#d7fdff;}</style></defs><g id="OBJECTS"><path class="cls-1" d="M117.71,12.22H30.29L37.2,137.84h0C37.64,143.47,53.94,148,74,148s36.36-4.53,36.76-10.16h0Z"/><ellipse class="cls-2" cx="74" cy="12.02" rx="43.71" ry="12.02"/><ellipse class="cls-1" cx="74" cy="12.02" rx="36.63" ry="9.67"/><path class="cls-3" d="M36.38,38.59l4.88,96.23h0c.35,5,14.85,9,32.7,9s32.35-4,32.7-9h0l4.88-96.23Z"/><ellipse class="cls-4" cx="74" cy="38.19" rx="37.71" ry="9.95"/><g class="cls-5"><polygon class="cls-2" points="67.2 79.75 53.63 80.66 44.84 67.14 58.41 66.23 67.2 79.75"/><polygon class="cls-6" points="67.2 79.75 73.54 67.71 64.75 54.19 58.41 66.23 67.2 79.75"/><polygon class="cls-7" points="64.75 54.19 52.17 56.12 44.84 67.14 58.41 66.23 64.75 54.19"/></g><g class="cls-5"><polygon class="cls-2" points="82.36 130.58 73.66 120.13 79.46 105.08 88.16 115.54 82.36 130.58"/><polygon class="cls-6" points="82.36 130.58 95.83 128.67 101.63 113.62 88.16 115.54 82.36 130.58"/><polygon class="cls-7" points="101.63 113.62 92.69 104.55 79.46 105.08 88.16 115.54 101.63 113.62"/></g><g class="cls-5"><polygon class="cls-2" points="86.37 94.19 77.67 83.73 83.46 68.69 92.16 79.14 86.37 94.19"/><polygon class="cls-6" points="86.37 94.19 99.83 92.27 105.63 77.22 92.16 79.14 86.37 94.19"/><polygon class="cls-7" points="105.63 77.22 96.69 68.16 83.46 68.69 92.16 79.14 105.63 77.22"/></g><g class="cls-5"><polygon class="cls-2" points="64.96 115.39 56.26 104.94 62.05 89.89 70.75 100.34 64.96 115.39"/><polygon class="cls-6" points="64.96 115.39 78.43 113.47 84.22 98.43 70.75 100.34 64.96 115.39"/><polygon class="cls-7" points="84.22 98.43 75.28 89.36 62.05 89.89 70.75 100.34 84.22 98.43"/></g></g></svg>