<svg xmlns="http://www.w3.org/2000/svg" viewBox="0 0 148 148"><defs><style>.cls-1{fill:#9ceaff;}.cls-2{fill:#60b2bf;}.cls-3{fill:#489199;}.cls-4{fill:#75c5d8;}.cls-5{fill:#78d5ea;}.cls-6{fill:#4bb5c6;}.cls-7{fill:#c69166;}.cls-8{fill:#f7dec9;}</style></defs><g id="OBJECTS"><path class="cls-1" d="M129.3,98.84C115.75,95.55,96,93.47,74,93.47c-23.52,0-44.46,2.38-58,6.07l-16,.1v9.82c0,8.83,33.13,16,74,16s74-7.16,74-16V98.73Z"/><ellipse class="cls-2" cx="74" cy="99.64" rx="74" ry="15.99"/><ellipse class="cls-3" cx="74" cy="99.64" rx="64.41" ry="13.02"/><path class="cls-4" d="M119.74,89a23.43,23.43,0,0,1-10.13-2.27l3.16-6.66a16.07,16.07,0,0,0,7,1.56,16.29,16.29,0,1,0,0-32.58V41.7a23.66,23.66,0,1,1,0,47.32Z"/><path class="cls-1" d="M119.71,33.54c-.5-6.09-22.59-11-49.77-11s-49.27,4.9-49.77,11H20V56.09a50,50,0,0,0,50,50h0a50,50,0,0,0,49.94-49.95V33.54Z"/><ellipse class="cls-5" cx="69.94" cy="33.75" rx="49.79" ry="11.2"/><ellipse class="cls-6" cx="69.94" cy="33.75" rx="46" ry="9.65"/><path class="cls-7" d="M25.69,36.39c5.46,4,23.2,7,44.25,7s38.78-3,44.25-7c-5.47-4-23.2-7-44.25-7S31.15,32.34,25.69,36.39Z"/><path class="cls-8" d="M97.5,34.56c-2.4,1.4-4.37,2.83-6.69,3.91a11.52,11.52,0,0,0,2.74-3.29,1.26,1.26,0,0,0-2-1.52c-2.59,2-4.6,4.06-7.87,5-.35.1-.71.19-1.07.27a16.54,16.54,0,0,0,5.27-5.63.57.57,0,0,0-1-.58,17.2,17.2,0,0,1-8.77,6.76l-.82.07C79.66,38,81.55,36,80.79,33.17a4.12,4.12,0,0,0-4.88-2.71,5.08,5.08,0,0,0-2.54,1.33,6.86,6.86,0,0,0-2,1.76,12.9,12.9,0,0,0-1.75,3.06c-1.61-2.37-4.44-3.52-7.21-4.38-1.78-.55-3.84-.68-5.28.7a3.78,3.78,0,0,0-.37,4.92c1.07,1.56,2.86,2.11,4.59,2.6l1,.29H62a15,15,0,0,1-2.39-.63c-3.36-1.23-5.33-4.12-7.93-6.36a.58.58,0,0,0-.91.69A15.58,15.58,0,0,0,55.83,40a11.38,11.38,0,0,1-4.77-2.14c-1.54-1.29-2.44-3.27-4-4.48a.52.52,0,0,0-.88.36c-.1,2,2.69,4.36,4.05,5.45a9.73,9.73,0,0,0,1.11.74,17.41,17.41,0,0,1-9.27-5.9.66.66,0,0,0-1.09.63c1,3.22,4.52,5.16,7.5,6.36,3.83,1.54,8.14,1.56,12.24,1.15a30.33,30.33,0,0,0,8,.84,27.93,27.93,0,0,0,6.36-.81c7.08.6,19.64.41,23.35-6.69A.72.72,0,0,0,97.5,34.56Z"/></g></svg>