<svg xmlns="http://www.w3.org/2000/svg" viewBox="0 0 148 148"><defs><style>.cls-1{fill:#7a3a2b;}.cls-2{fill:#ccaea3;}.cls-3{fill:#b7958b;}.cls-4{fill:#4c3934;}</style></defs><g id="OBJECTS"><path class="cls-1" d="M112.38,24.57H35.62l6.67,114.36a1.53,1.53,0,0,0,0,.3c0,4.75,14.21,8.6,31.74,8.6s31.74-3.85,31.74-8.6a1.53,1.53,0,0,0,0-.3Z"/><path class="cls-2" d="M37.9,63.76l2.55,43.62a265.83,265.83,0,0,0,67.11-.15l2.55-43.69A212,212,0,0,1,37.9,63.76Z"/><ellipse class="cls-2" cx="74" cy="17.92" rx="42.32" ry="12.03"/><path class="cls-2" d="M116.32,17.92c0-6.64-18.95-12-42.32-12-22.5,0-40.89,5-42.23,11.29h-.09v9.35c0,6.64,19,12,42.32,12s42.32-5.38,42.32-12l-.15-7.65A3.57,3.57,0,0,0,116.32,17.92Z"/><ellipse class="cls-3" cx="74" cy="17.92" rx="42.32" ry="12.03"/><ellipse class="cls-2" cx="74" cy="10.26" rx="36.05" ry="10.24"/><path class="cls-2" d="M110.05,10.26C110.05,4.6,93.91,0,74,0,54.84,0,39.17,4.26,38,9.63H38v8C38,23.25,54.09,27.84,74,27.84s36.05-4.59,36.05-10.25l-.13-6.51A2.87,2.87,0,0,0,110.05,10.26Z"/><ellipse class="cls-3" cx="74" cy="10.26" rx="36.05" ry="10.24"/><path class="cls-4" d="M104.88,9.62c0,2.14-4,3.88-8.95,3.88s-9-1.74-9-3.88,4-3.88,9-3.88S104.88,7.48,104.88,9.62Z"/></g></svg>