<svg xmlns="http://www.w3.org/2000/svg" viewBox="0 0 148 148"><defs><style>.cls-1{isolation:isolate;}.cls-2{fill:#98e7f4;}.cls-3{fill:#75c5d8;}.cls-4{fill:#c38556;}.cls-5,.cls-8{fill:#7d4c27;}.cls-5{mix-blend-mode:multiply;}.cls-6{fill:#efcaad;}.cls-7{fill:#ecbe9b;}</style></defs><g class="cls-1"><g id="OBJECTS"><path class="cls-2" d="M49,125.51l-6.47,13.63A63.42,63.42,0,0,0,74.13,148a60.73,60.73,0,0,0,31.73-9.54l-6.47-13.29-47.22-.34"/><path class="cls-3" d="M110,22.53H38.05L48.57,125.85h0c.27,4.63,8.89,8.35,25.39,8.35s25.12-3.72,25.39-8.35h0Z"/><path class="cls-4" d="M106.25,22.84H41.75l10.57,96h0c.23,4,7.58,7.13,21.65,7.13s21.42-3.18,21.65-7.13h0Z"/><path class="cls-5" d="M50.06,46.38a15.53,15.53,0,0,1,5.85-.88,16.26,16.26,0,0,1,5.63,1.57,13.24,13.24,0,0,1,4.91,4A17.2,17.2,0,0,0,68,52.79h0a2.26,2.26,0,0,0,.2.13l.41.23.33.12.73.17.07,0h.08l.46,0h.88a17.5,17.5,0,0,0,2-.15A26.49,26.49,0,0,0,78.49,52c3.11-1.1,6.08-2.62,9.31-3.38a18.09,18.09,0,0,1,10.58.47,15.5,15.5,0,0,1,3.12,1.65c.36.25.71.49,1.08.71a3.84,3.84,0,0,0,.4.21l.09,0,3.18-28.89H41.75L44.63,49A26.81,26.81,0,0,1,50.06,46.38Z"/><path class="cls-6" d="M97,90.91c-3.31.15-6.49,1.24-9.79,1.46a12.94,12.94,0,0,1-8.58-2.32c-1-.74-1.78-1.48-2.66-2a9.38,9.38,0,0,0-3.61-1.26,9.48,9.48,0,0,0-1.62-.14c-.29,0-.57,0-.86,0s-.24,0-.33,0a10.85,10.85,0,0,0-1.59.39l-.59.22-.16.06-.19.08a56.21,56.21,0,0,1-5.8,2.66,16.2,16.2,0,0,1-8.31.59,12.24,12.24,0,0,1-3.86-1.56l3.27,29.73h0c.23,4,7.58,7.13,21.65,7.13s21.42-3.18,21.65-7.13h0l3.08-28Z"/><ellipse class="cls-2" cx="74" cy="22.36" rx="35.95" ry="9.88"/><path class="cls-7" d="M103.77,23.51s0-.08,0-.13A87.63,87.63,0,0,0,99.16,12.1a7.9,7.9,0,0,0-1.67-2.49c-2.66-2.46-7.63-3.25-10-5.59A12.23,12.23,0,0,0,82.64.56C75.46-1.3,67,1.94,65.28,3.39c-2.36,2.82-4.26,4.74-5.86,7.7a5.51,5.51,0,0,1-3.12,3.05c-1.63.49-3.53,0-5.24.28-2.45.47-3.68,2.44-4.58,4.18-.62,1.2-2.33,3.23-2.08,4.73a1.59,1.59,0,0,0-.53,1.09c0,3.25,13.49,5.89,30.13,5.89s30.13-2.64,30.13-5.89A1.5,1.5,0,0,0,103.77,23.51Z"/><path class="cls-8" d="M72.56,16l1.69,1.58a2.44,2.44,0,0,0,2.74,0,1.21,1.21,0,0,0,0-2L75.3,14a2.43,2.43,0,0,0-2.74,0,1.21,1.21,0,0,0,0,2Z"/><path class="cls-8" d="M91.77,17.28c.32.07.65.16,1,.21.64.1,1.43-.13,1.61-.64s-.18-1-.77-1.14l-1.12-.31a1.41,1.41,0,0,0-1.62.68c-.17.52.21,1.05.92,1.2Z"/><path class="cls-8" d="M80.94,5.53a6.8,6.8,0,0,1-1,1.32c-.43.41-1.07.82-1.5,1.28a1.13,1.13,0,0,0,.29,1.66A2.45,2.45,0,0,0,81,10a7.21,7.21,0,0,0,3.45-3.4c.36-.63-.32-1.42-1.1-1.66a2.26,2.26,0,0,0-2.37.58Z"/><path class="cls-8" d="M87.11,22.2l1.16.4a4.92,4.92,0,0,0,.71.23,3.06,3.06,0,0,0,.8,0c.67-.06,1-.41.92-.89a1.51,1.51,0,0,0-.13-.46,2.69,2.69,0,0,0-.55-.57l-.81-.72a2.13,2.13,0,0,0-2.58.13,1.1,1.1,0,0,0,.48,1.88Z"/><path class="cls-8" d="M73.76,22l-3,1.26a1.46,1.46,0,0,0-.8,2.26,2.75,2.75,0,0,0,3.05.59L76,24.82c1-.44,1.43-1.47.78-2.22a2.71,2.71,0,0,0-3-.58Z"/><path class="cls-8" d="M59.81,20l-2.14.54c-1.14.29-1.8,1.16-1.31,2a2.36,2.36,0,0,0,2.86.71l2.05-.7a1.24,1.24,0,0,0,.78-1.75A2.13,2.13,0,0,0,59.81,20Z"/><path class="cls-8" d="M63.07,16l2.5-.35c.94-.14,1.56-1,1.27-1.66A2,2,0,0,0,64.61,13l-2.53.29c-1,.12-1.58,1-1.3,1.7a2.08,2.08,0,0,0,2.29,1Z"/><path class="cls-8" d="M65.31,8.12l2.52.28c.9.1,1.91-.16,2.14-.9a1.31,1.31,0,0,0-1.21-1.58l-2.51-.34c-.91-.12-2,.19-2.18.92a1.34,1.34,0,0,0,1.24,1.62Z"/><path class="cls-8" d="M48.7,19.7c-.12-.49,0,.09,0,.07,0-.2,0-.23,0-.1a.61.61,0,0,1,0,.12c0,.09,0,.05.07-.13a1.9,1.9,0,0,0-.23.39c0,.08-.24.4,0,.06a1,1,0,0,0,.26,1.48,2.11,2.11,0,0,0,2,.19A2.18,2.18,0,0,0,52,20.47a2,2,0,0,0-.1-1.42,1.82,1.82,0,0,0-2-.86c-.91.22-1.32.83-1.15,1.51Z"/><path class="cls-8" d="M97.66,22.4c0,.58-.22,1.39.27,1.87a2,2,0,0,0,2.92,0c.49-.48.29-1.29.27-1.87a1.59,1.59,0,0,0-1.73-1.29c-1,0-1.71.57-1.73,1.29Z"/></g></g></svg>