<?xml version="1.0" encoding="UTF-8"?>
<svg id="Layer_2" data-name="Layer 2" xmlns="http://www.w3.org/2000/svg" viewBox="0 0 24 24">
  <defs>
    <style>
      .cls-1 {
        fill: #fff;
      }

      .cls-2 {
        fill: #232527;
      }

      .cls-3 {
        fill: #005ab8;
      }
    </style>
  </defs>
  <g id="Layer_1-2" data-name="Layer 1">
    <g>
      <g>
        <path class="cls-1" d="m23,11v2c0,1.1-.9,2-2,2h-.52c-.11.29-.23.58-.37.87l.37.37c.79.79.79,2.05,0,2.83l-1.41,1.41c-.78.78-2.05.79-2.83,0l-.37-.36c-.29.14-.58.26-.87.37v.51c0,1.1-.9,2-2,2h-2c-1.11,0-2-.9-2-2v-.51c-.3-.11-.59-.23-.88-.37l-.37.36c-.77.78-2.04.79-2.82,0l-1.42-1.41c-.78-.78-.78-2.05,0-2.83l.37-.37c-.14-.29-.26-.58-.37-.87h-.51c-1.11,0-2-.9-2-2v-2c0-1.11.89-2,2-2h.51c.11-.3.23-.59.37-.88l-.37-.36c-.78-.78-.78-2.05,0-2.83l1.42-1.42c.78-.78,2.05-.77,2.82,0l.37.37c.29-.14.58-.26.88-.37v-.51c0-1.11.89-2,2-2h2c1.1,0,2,.89,2,2v.51c.29.11.58.23.87.37l.37-.37c.78-.78,2.05-.77,2.83,0l1.41,1.42c.79.78.79,2.04,0,2.83l-.37.36c.14.29.26.58.37.88h.52c1.1,0,2,.89,2,2Z"/>
        <path class="cls-2" d="m13,24h-2c-1.47,0-2.7-1.07-2.95-2.47-1.12.79-2.83.66-3.83-.35l-1.41-1.4c-.57-.57-.88-1.32-.88-2.12,0-.62.18-1.21.53-1.71-1.4-.26-2.46-1.48-2.46-2.95v-2c0-1.47,1.06-2.69,2.46-2.95-.35-.5-.53-1.09-.53-1.7,0-.8.31-1.56.88-2.12l1.42-1.42c.56-.56,1.31-.87,2.12-.87h0c.62,0,1.21.19,1.7.53.25-1.4,1.48-2.46,2.95-2.46h2c1.47,0,2.69,1.06,2.95,2.46,1.16-.8,2.78-.69,3.82.34l1.42,1.43c.56.56.88,1.31.88,2.11,0,.62-.19,1.21-.54,1.72,1.4.25,2.46,1.48,2.46,2.95v2c0,1.47-1.06,2.7-2.46,2.95.35.5.54,1.1.54,1.72,0,.8-.32,1.55-.89,2.11l-1.41,1.41c-.57.57-1.32.88-2.13.88h0c-.61,0-1.2-.19-1.69-.53-.25,1.4-1.48,2.46-2.95,2.46Zm-4.88-4.88c.15,0,.3.03.43.1.26.13.52.23.79.33.39.14.66.52.66.94v.51c0,.55.45,1,1,1h2c.55,0,1-.45,1-1v-.51c0-.42.26-.79.65-.94.26-.1.53-.21.79-.34.38-.18.83-.11,1.13.18l.37.36c.2.2.45.3.71.31h0c.27,0,.52-.1.71-.3l1.41-1.41c.19-.19.3-.44.3-.7,0-.27-.11-.52-.3-.71l-.37-.37c-.3-.3-.38-.76-.19-1.14.13-.26.24-.53.34-.79.15-.39.52-.64.93-.64h.52c.55,0,1-.45,1-1v-2c0-.55-.45-1-1-1h-.52c-.42,0-.79-.26-.94-.65-.1-.27-.21-.53-.33-.79-.19-.39-.1-.85.2-1.15l.37-.36c.18-.18.29-.44.29-.71,0-.26-.11-.51-.29-.7l-1.42-1.43c-.39-.38-1.02-.38-1.41,0l-.37.37c-.3.3-.76.38-1.14.19-.26-.13-.53-.24-.79-.34-.39-.15-.65-.52-.65-.94v-.51c0-.55-.45-1-1-1h-2c-.56,0-1,.44-1,1v.51c0,.42-.26.79-.66.94-.27.1-.53.21-.79.33-.38.19-.84.11-1.14-.19l-.37-.37c-.19-.19-.43-.29-.7-.29-.28-.03-.52.1-.7.29l-1.42,1.42c-.19.19-.29.44-.29.71s.1.52.29.71l.36.35c.31.3.39.77.2,1.15-.12.26-.23.52-.33.79-.14.39-.52.66-.94.66h-.51c-.56,0-1,.44-1,1v2c0,.55.45,1,1,1h.51c.42,0,.79.26.94.65.1.26.21.52.33.79.19.38.11.84-.19,1.14l-.37.37c-.19.19-.29.44-.29.71s.1.52.29.71l1.42,1.41c.39.39,1.03.38,1.4,0l.38-.37c.19-.19.44-.28.7-.28Z"/>
      </g>
      <g>
        <circle class="cls-1" cx="12" cy="12" r="4"/>
        <path class="cls-3" d="m12,17c-2.76,0-5-2.24-5-5s2.24-5,5-5,5,2.24,5,5-2.24,5-5,5Zm0-8c-1.65,0-3,1.35-3,3s1.35,3,3,3,3-1.35,3-3-1.35-3-3-3Z"/>
      </g>
    </g>
  </g>
</svg>