<?xml version="1.0" encoding="UTF-8"?>
<svg id="Layer_2" data-name="Layer 2" xmlns="http://www.w3.org/2000/svg" viewBox="0 0 22 22">
  <defs>
    <style>
      .cls-1 {
        fill: #232527;
      }

      .cls-2 {
        fill: #005ab8;
      }
    </style>
  </defs>
  <g id="Layer_1-2" data-name="Layer 1">
    <g>
      <g>
        <circle class="cls-2" cx="11.05" cy="15.17" r="1"/>
        <path class="cls-2" d="m11.05,11.15c-.55,0-1-.45-1-1s.45-1,1-1,1-.45,1-1-.45-1-1-1-1,.45-1,1-.45,1-1,1-1-.45-1-1c0-1.66,1.35-3,3-3s3,1.35,3,3-1.35,3-3,3Z"/>
        <path class="cls-2" d="m11.05,13.15c-.55,0-1-.45-1-1v-2c0-.55.45-1,1-1s1,.45,1,1v2c0,.55-.45,1-1,1Z"/>
      </g>
      <path class="cls-1" d="m11,22c-2.82,0-5.64-1.07-7.78-3.22C-1.07,14.49-1.07,7.51,3.22,3.22,7.51-1.07,14.49-1.07,18.78,3.22c4.29,4.29,4.29,11.27,0,15.56-2.15,2.15-4.96,3.22-7.78,3.22Zm0-20c-2.31,0-4.61.88-6.37,2.63-3.51,3.51-3.51,9.22,0,12.73,3.51,3.51,9.22,3.51,12.73,0,3.51-3.51,3.51-9.22,0-12.73-1.76-1.76-4.06-2.63-6.37-2.63Z"/>
    </g>
  </g>
</svg>