<?xml version="1.0" encoding="UTF-8"?>
<svg id="Layer_2" data-name="Layer 2" xmlns="http://www.w3.org/2000/svg" viewBox="0 0 22 24">
  <defs>
    <style>
      .cls-1 {
        fill: #005ab8;
      }
    </style>
  </defs>
  <g id="Layer_1-2" data-name="Layer 1">
    <g>
      <path class="cls-1" d="m15,9.72c-.55,0-1-.46-1-1.02v-3.6c0-1.69-1.35-3.06-3-3.06s-3,1.37-3,3.06v3.6c0,.56-.45,1.02-1,1.02s-1-.46-1-1.02v-3.6c0-2.81,2.24-5.1,5-5.1s5,2.29,5,5.1v3.6c0,.56-.45,1.02-1,1.02Z"/>
      <path class="cls-1" d="m21,24H1c-.29,0-.57-.13-.76-.35-.19-.22-.28-.52-.23-.81l2-14.28c.07-.5.49-.88.99-.88h16c.5,0,.92.37.99.88l2,14.28c.04.29-.04.59-.23.81-.19.22-.47.35-.76.35Zm-18.85-2.04h17.69l-1.71-12.24H3.87l-1.72,12.24Z"/>
      <ellipse class="cls-1" cx="15" cy="11.76" rx="1" ry="1.02"/>
      <ellipse class="cls-1" cx="7" cy="11.76" rx="1" ry="1.02"/>
    </g>
  </g>
</svg>