<?xml version="1.0" encoding="utf-8"?>
<!-- Generator: Adobe Illustrator 27.7.0, SVG Export Plug-In . SVG Version: 6.00 Build 0)  -->
<svg version="1.1" id="Layer_2_00000098901273933596000920000014354030723040155808_"
	 xmlns="http://www.w3.org/2000/svg" xmlns:xlink="http://www.w3.org/1999/xlink" x="0px" y="0px" viewBox="0 0 19.3 19.3"
	 style="enable-background:new 0 0 19.3 19.3;" xml:space="preserve">
<style type="text/css">
	.st0{fill:#636363;}
</style>
<g id="Layer_1-2">
	<g>
		<path class="st0" d="M17.8,19.3c-0.4,0-0.8-0.1-1.1-0.4L0.4,2.6C-0.2,2-0.2,1,0.4,0.4C1-0.2,2-0.2,2.6,0.4l16.3,16.3
			c0.6,0.6,0.6,1.5,0,2.1C18.5,19.1,18.1,19.3,17.8,19.3z"/>
		<path class="st0" d="M1.5,19.3c-0.4,0-0.8-0.1-1.1-0.4c-0.6-0.6-0.6-1.5,0-2.1L16.7,0.4c0.6-0.6,1.5-0.6,2.1,0
			c0.6,0.6,0.6,1.5,0,2.1L2.6,18.8C2.3,19.1,1.9,19.3,1.5,19.3z"/>
	</g>
</g>
</svg>
