<?xml version="1.0" encoding="UTF-8"?>
<svg id="Layer_2" data-name="Layer 2" xmlns="http://www.w3.org/2000/svg" viewBox="0 0 24 24">
  <defs>
    <style>
      .cls-1 {
        fill: #232527;
      }

      .cls-2 {
        fill: #005ab8;
      }
    </style>
  </defs>
  <g id="Layer_1-2" data-name="Layer 1">
    <g>
      <g>
        <path class="cls-2" d="m22.99,10.26v2c0,1.11-.9,2-2.02,2h-1.01v-6h1.01c1.12,0,2.02.89,2.02,2Z"/>
        <path class="cls-2" d="m20.97,15.26h-2.02V7.26h2.02c1.67,0,3.03,1.35,3.03,3v2c0,1.65-1.36,3-3.03,3Zm0-6v4c.57,0,1.01-.44,1.01-1v-2c0-.56-.44-1-1.01-1Z"/>
      </g>
      <g>
        <path class="cls-2" d="m4.04,8.36v6h-1.02c-1.11,0-2.01-.89-2.01-2v-2c0-1.11.9-2,2.01-2h1.02Z"/>
        <path class="cls-2" d="m5.05,15.36h-2.03c-1.67,0-3.02-1.35-3.02-3v-2c0-1.65,1.36-3,3.02-3h2.03v8Zm-2.03-6c-.55,0-1,.45-1,1v2c0,.55.45,1,1,1h0v-4Z"/>
      </g>
      <path class="cls-1" d="m12,24c-4.64,0-8.42-3.74-8.42-8.33v-7.33C3.58,3.74,7.36,0,12,0s8.42,3.74,8.42,8.33v7.33c0,.55-.45,1-1.01,1s-1.01-.45-1.01-1v-7.33c0-3.49-2.87-6.33-6.4-6.33s-6.4,2.84-6.4,6.33v7.33c0,3.49,2.87,6.33,6.4,6.33.56,0,1.01.45,1.01,1s-.45,1-1.01,1Z"/>
      <ellipse class="cls-2" cx="9.98" cy="9.81" rx="1.01" ry="1"/>
      <ellipse class="cls-2" cx="14.02" cy="9.81" rx="1.01" ry="1"/>
      <path class="cls-2" d="m12,14.86c-1.39,0-2.53-1.12-2.53-2.5,0-.28.23-.5.51-.5s.51.22.51.5c0,.83.68,1.5,1.52,1.5s1.52-.67,1.52-1.5c0-.28.23-.5.51-.5s.51.22.51.5c0,1.38-1.13,2.5-2.53,2.5Z"/>
    </g>
  </g>
</svg>