<?xml version="1.0" encoding="UTF-8"?>
<svg id="Layer_2" data-name="Layer 2" xmlns="http://www.w3.org/2000/svg" viewBox="0 0 491.47 36">
  <defs>
    <style>
      .cls-1 {
        fill: #005ab8;
      }
    </style>
  </defs>
  <g id="Layer_1-2" data-name="Layer 1">
    <g>
      <path class="cls-1" d="m37.1,36H15.46c-2.34,0-4.45-.43-6.34-1.3-1.89-.86-3.51-2.06-4.87-3.6-1.36-1.54-2.41-3.32-3.14-5.35-.74-2.03-1.1-4.22-1.1-6.55s.37-4.47,1.1-6.5c.74-2.03,1.78-3.82,3.14-5.38,1.36-1.55,2.98-2.76,4.87-3.62,1.89-.86,4-1.3,6.34-1.3h21.65v4.8H15.46c-2.21,0-4.1.54-5.69,1.61-1.58,1.07-2.81,2.52-3.67,4.34-.86,1.82-1.3,3.84-1.3,6.05s.43,4.22,1.3,6.02c.86,1.81,2.09,3.26,3.67,4.34s3.48,1.63,5.69,1.63h21.65v4.8Z"/>
      <path class="cls-1" d="m82.51,19.2c0,2.34-.37,4.52-1.1,6.55-.74,2.03-1.78,3.82-3.14,5.35-1.36,1.54-2.99,2.74-4.9,3.6s-4.01,1.3-6.31,1.3h-16.94v-4.8h16.94c2.21,0,4.11-.54,5.71-1.63,1.6-1.09,2.82-2.54,3.67-4.34.85-1.81,1.27-3.82,1.27-6.02s-.42-4.22-1.27-6.05c-.85-1.82-2.07-3.27-3.67-4.34-1.6-1.07-3.5-1.61-5.71-1.61h-19.34v28.8h-4.8V2.4h24.14c2.3,0,4.41.43,6.31,1.3,1.9.86,3.54,2.07,4.9,3.62,1.36,1.55,2.41,3.34,3.14,5.38.74,2.03,1.1,4.2,1.1,6.5Z"/>
      <path class="cls-1" d="m127.44,36h-6.48l-10.08-9.6h-14.74v-4.75h19.3c1.34,0,2.56-.33,3.65-.98,1.09-.66,1.95-1.54,2.59-2.64.64-1.1.96-2.31.96-3.62s-.32-2.56-.96-3.65c-.64-1.09-1.5-1.95-2.59-2.59-1.09-.64-2.3-.96-3.65-.96h-21.98v28.8h-4.8V2.4h26.78c2.21,0,4.22.54,6.05,1.61,1.82,1.07,3.27,2.52,4.34,4.34,1.07,1.82,1.61,3.84,1.61,6.05,0,1.98-.44,3.82-1.32,5.52-.88,1.7-2.08,3.1-3.6,4.2-1.52,1.1-3.24,1.82-5.16,2.14l10.08,9.74Z"/>
      <path class="cls-1" d="m190.37,36h-6.48l-10.08-9.6h-14.74v-4.75h19.3c1.34,0,2.56-.33,3.65-.98,1.09-.66,1.95-1.54,2.59-2.64.64-1.1.96-2.31.96-3.62s-.32-2.56-.96-3.65c-.64-1.09-1.5-1.95-2.59-2.59-1.09-.64-2.3-.96-3.65-.96h-21.98v28.8h-4.8V2.4h26.78c2.21,0,4.22.54,6.05,1.61,1.82,1.07,3.27,2.52,4.34,4.34,1.07,1.82,1.61,3.84,1.61,6.05,0,1.98-.44,3.82-1.32,5.52-.88,1.7-2.08,3.1-3.6,4.2-1.52,1.1-3.24,1.82-5.16,2.14l10.08,9.74Z"/>
      <path class="cls-1" d="m227.52,22.8c0,1.82-.34,3.53-1.01,5.11-.67,1.58-1.61,2.98-2.81,4.2-1.2,1.22-2.59,2.17-4.18,2.86-1.58.69-3.29,1.03-5.11,1.03h-7.39c-1.82,0-3.53-.34-5.11-1.03-1.58-.69-2.98-1.64-4.18-2.86-1.2-1.22-2.14-2.62-2.81-4.2-.67-1.58-1.01-3.29-1.01-5.11s.34-3.53,1.01-5.11c.67-1.58,1.61-2.98,2.81-4.2,1.2-1.22,2.59-2.17,4.18-2.86,1.58-.69,3.29-1.03,5.11-1.03h7.39c1.82,0,3.53.34,5.11,1.03,1.58.69,2.98,1.64,4.18,2.86,1.2,1.22,2.14,2.62,2.81,4.2.67,1.58,1.01,3.29,1.01,5.11Zm-4.8,0c0-1.54-.37-2.94-1.1-4.2-.74-1.26-1.74-2.28-3-3.05-1.26-.77-2.66-1.15-4.2-1.15h-7.39c-1.54,0-2.93.38-4.18,1.15-1.25.77-2.25,1.78-3,3.05-.75,1.26-1.13,2.66-1.13,4.2s.38,2.94,1.13,4.2c.75,1.26,1.75,2.28,3,3.05,1.25.77,2.64,1.15,4.18,1.15h7.39c1.54,0,2.94-.38,4.2-1.15,1.26-.77,2.26-1.78,3-3.05.74-1.26,1.1-2.66,1.1-4.2Z"/>
      <path class="cls-1" d="m263.86,22.8c0,1.82-.34,3.53-1.01,5.11-.67,1.58-1.61,2.98-2.81,4.2-1.2,1.22-2.59,2.17-4.18,2.86-1.58.69-3.29,1.03-5.11,1.03h-18V0h4.8v31.2h13.2c1.54,0,2.94-.38,4.2-1.15,1.26-.77,2.26-1.78,3-3.05.74-1.26,1.1-2.66,1.1-4.2s-.37-2.94-1.1-4.2c-.74-1.26-1.74-2.28-3-3.05-1.26-.77-2.66-1.15-4.2-1.15h-10.8v-4.8h10.8c1.82,0,3.53.34,5.11,1.03,1.58.69,2.98,1.64,4.18,2.86,1.2,1.22,2.14,2.62,2.81,4.2.67,1.58,1.01,3.29,1.01,5.11Z"/>
      <path class="cls-1" d="m301.01,22.8c0,1.82-.34,3.53-1.01,5.11-.67,1.58-1.61,2.98-2.81,4.2-1.2,1.22-2.59,2.17-4.18,2.86-1.58.69-3.29,1.03-5.11,1.03h-7.39c-1.82,0-3.53-.34-5.11-1.03-1.58-.69-2.98-1.64-4.18-2.86-1.2-1.22-2.14-2.62-2.81-4.2-.67-1.58-1.01-3.29-1.01-5.11s.34-3.53,1.01-5.11c.67-1.58,1.61-2.98,2.81-4.2,1.2-1.22,2.59-2.17,4.18-2.86,1.58-.69,3.29-1.03,5.11-1.03h7.39c1.82,0,3.53.34,5.11,1.03,1.58.69,2.98,1.64,4.18,2.86,1.2,1.22,2.14,2.62,2.81,4.2.67,1.58,1.01,3.29,1.01,5.11Zm-4.8,0c0-1.54-.37-2.94-1.1-4.2-.74-1.26-1.74-2.28-3-3.05-1.26-.77-2.66-1.15-4.2-1.15h-7.39c-1.54,0-2.93.38-4.18,1.15-1.25.77-2.25,1.78-3,3.05-.75,1.26-1.13,2.66-1.13,4.2s.38,2.94,1.13,4.2c.75,1.26,1.75,2.28,3,3.05,1.25.77,2.64,1.15,4.18,1.15h7.39c1.54,0,2.94-.38,4.2-1.15,1.26-.77,2.26-1.78,3-3.05.74-1.26,1.1-2.66,1.1-4.2Z"/>
      <path class="cls-1" d="m315.07,36h-4.8V14.4h-7.2v-4.8h7.2V0h4.8v9.6h16.8v4.8h-16.8v21.6Z"/>
      <path class="cls-1" d="m388.13,36h-21.65c-2.34,0-4.45-.43-6.34-1.3-1.89-.86-3.51-2.06-4.87-3.6-1.36-1.54-2.41-3.32-3.14-5.35-.74-2.03-1.1-4.22-1.1-6.55s.37-4.47,1.1-6.5c.74-2.03,1.78-3.82,3.14-5.38,1.36-1.55,2.98-2.76,4.87-3.62,1.89-.86,4-1.3,6.34-1.3h21.65v4.8h-21.65c-2.21,0-4.1.54-5.69,1.61-1.58,1.07-2.81,2.52-3.67,4.34-.86,1.82-1.3,3.84-1.3,6.05s.43,4.22,1.3,6.02c.86,1.81,2.09,3.26,3.67,4.34s3.48,1.63,5.69,1.63h21.65v4.8Z"/>
      <path class="cls-1" d="m423.41,36h-24c-1.54,0-2.94-.38-4.22-1.13-1.28-.75-2.3-1.76-3.05-3.02-.75-1.26-1.13-2.68-1.13-4.25s.38-2.98,1.13-4.25c.75-1.26,1.77-2.27,3.05-3.02,1.28-.75,2.69-1.13,4.22-1.13h16.8v4.8h-16.8c-.99,0-1.84.35-2.54,1.06-.7.7-1.06,1.55-1.06,2.54s.35,1.84,1.06,2.54c.7.71,1.55,1.06,2.54,1.06h19.2v-13.2c0-.99-.35-1.84-1.06-2.54-.7-.7-1.55-1.06-2.54-1.06h-19.2v-4.8h19.2c1.57,0,2.98.38,4.25,1.13,1.26.75,2.27,1.76,3.02,3.02.75,1.26,1.13,2.68,1.13,4.25v18Z"/>
      <path class="cls-1" d="m456.53,4.8h-13.3c-1.54,0-2.93.38-4.18,1.15-1.25.77-2.25,1.78-3,3.05-.75,1.26-1.13,2.66-1.13,4.2v22.8h-4.8V12c0-1.7.35-3.27,1.06-4.73.7-1.46,1.67-2.72,2.9-3.79,1.23-1.07,2.63-1.92,4.2-2.54,1.57-.62,3.22-.94,4.94-.94h13.3v4.8Zm0,12h-19.2v-4.8h19.2v4.8Z"/>
      <path class="cls-1" d="m491.47,18c0,1.54-.38,2.94-1.13,4.22-.75,1.28-1.76,2.3-3.02,3.05-1.26.75-2.68,1.13-4.25,1.13h-18.38c.67,1.41,1.67,2.56,3,3.46,1.33.9,2.82,1.34,4.49,1.34h15.7v4.8h-15.7c-1.82,0-3.53-.34-5.11-1.03-1.58-.69-2.98-1.64-4.18-2.86-1.2-1.22-2.14-2.62-2.81-4.2-.67-1.58-1.01-3.29-1.01-5.11s.34-3.53,1.01-5.11c.67-1.58,1.61-2.98,2.81-4.2,1.2-1.22,2.59-2.17,4.18-2.86,1.58-.69,3.29-1.03,5.11-1.03h10.9c1.57,0,2.98.38,4.25,1.13,1.26.75,2.27,1.76,3.02,3.02.75,1.26,1.13,2.68,1.13,4.25Zm-8.4,3.6c.99,0,1.84-.35,2.54-1.06.7-.7,1.06-1.55,1.06-2.54s-.35-1.84-1.06-2.54c-.7-.7-1.55-1.06-2.54-1.06h-10.9c-1.41,0-2.7.32-3.86.96-1.17.64-2.14,1.5-2.9,2.59-.77,1.09-1.25,2.3-1.44,3.65h19.1Z"/>
    </g>
  </g>
</svg>