<?xml version="1.0" encoding="UTF-8"?>
<svg id="Layer_2" data-name="Layer 2" xmlns="http://www.w3.org/2000/svg" viewBox="0 0 384.45 105">
  <defs>
    <style>
      .cls-1 {
        fill: #005ab8;
      }
    </style>
  </defs>
  <g id="Layer_1-2" data-name="Layer 1">
    <g>
      <path class="cls-1" d="m115.95,105H48.3c-7.3,0-13.9-1.35-19.8-4.05-5.9-2.7-10.98-6.45-15.23-11.25-4.25-4.8-7.53-10.37-9.83-16.73-2.3-6.35-3.45-13.17-3.45-20.47s1.15-13.97,3.45-20.33c2.3-6.35,5.57-11.95,9.83-16.8,4.25-4.85,9.32-8.62,15.23-11.33C34.4,1.35,41,0,48.3,0h67.65v15H48.3c-6.9,0-12.82,1.68-17.77,5.03-4.95,3.35-8.77,7.88-11.48,13.57-2.7,5.7-4.05,12-4.05,18.9s1.35,13.18,4.05,18.83c2.7,5.65,6.52,10.18,11.48,13.58,4.95,3.4,10.88,5.1,17.77,5.1h67.65v15Z"/>
      <path class="cls-1" d="m255.3,105h-20.25l-31.5-30h-46.05v-14.85h60.3c4.2,0,8-1.02,11.4-3.08,3.4-2.05,6.1-4.8,8.1-8.25,2-3.45,3-7.22,3-11.33s-1-8-3-11.4c-2-3.4-4.7-6.1-8.1-8.1-3.4-2-7.2-3-11.4-3h-68.7v90h-15V0h83.7c6.9,0,13.2,1.68,18.9,5.03,5.7,3.35,10.22,7.88,13.57,13.57,3.35,5.7,5.02,12,5.02,18.9,0,6.2-1.38,11.95-4.12,17.25-2.75,5.3-6.5,9.67-11.25,13.12-4.75,3.45-10.12,5.68-16.12,6.67l31.5,30.45Z"/>
      <path class="cls-1" d="m384.45,105h-67.65c-7.3,0-13.9-1.35-19.8-4.05-5.9-2.7-10.98-6.45-15.23-11.25-4.25-4.8-7.53-10.37-9.83-16.73-2.3-6.35-3.45-13.17-3.45-20.47s1.15-13.97,3.45-20.33c2.3-6.35,5.57-11.95,9.83-16.8,4.25-4.85,9.32-8.62,15.23-11.33,5.9-2.7,12.5-4.05,19.8-4.05h67.65v15h-67.65c-6.9,0-12.82,1.68-17.77,5.03-4.95,3.35-8.77,7.88-11.48,13.57-2.7,5.7-4.05,12-4.05,18.9s1.35,13.18,4.05,18.83c2.7,5.65,6.52,10.18,11.48,13.58,4.95,3.4,10.88,5.1,17.77,5.1h67.65v15Z"/>
    </g>
  </g>
</svg>