<?xml version="1.0" encoding="UTF-8"?>
<svg id="Layer_2" data-name="Layer 2" xmlns="http://www.w3.org/2000/svg" viewBox="0 0 851.86 299.79">
  <defs>
    <style>
      .cls-1 {
        fill: #d9803e;
      }

      .cls-2 {
        fill: #fafafa;
      }

      .cls-3 {
        fill: #232527;
      }

      .cls-4 {
        fill: #eaa518;
      }

      .cls-5 {
        fill: none;
      }

      .cls-6 {
        fill: #005ab8;
      }

      .cls-7 {
        fill: #ddeff9;
      }
    </style>
  </defs>
  <g id="Layer_1-2" data-name="Layer 1">
    <g>
      <g>
        <path class="cls-3" d="m760.86,58.13c1.55,2.69,2.18,5.65,1.98,8.54-.02.28-.05.55-.08.83-3.95,36.76-24.81,71.2-59.28,91.1-34.47,19.9-74.7,20.74-108.5,5.79-.27-.11-.54-.23-.79-.35-2.6-1.27-4.85-3.29-6.41-5.98-4.14-7.17-1.69-16.33,5.49-20.48,4.2-2.42,9.09-2.58,13.24-.86.26.11.51.22.77.33.02.01.04.02.06.03,25.31,11.11,55.39,10.43,81.16-4.45,25.77-14.88,41.39-40.58,44.43-68.06.03-.27.06-.53.08-.8.55-4.5,3.15-8.7,7.38-11.14,7.17-4.14,16.34-1.68,20.48,5.49Z"/>
        <path class="cls-3" d="m90.89,58.13c-1.55,2.69-2.18,5.65-1.98,8.54.02.28.05.55.08.83,3.95,36.76,24.81,71.2,59.28,91.1,34.47,19.9,74.7,20.74,108.5,5.79.27-.11.54-.23.79-.35,2.6-1.27,4.85-3.29,6.41-5.98,4.14-7.17,1.69-16.33-5.49-20.48-4.2-2.42-9.09-2.58-13.24-.86-.26.11-.51.22-.77.33-.02.01-.04.02-.06.03-25.31,11.11-55.39,10.43-81.16-4.45-25.77-14.88-41.39-40.58-44.43-68.06-.03-.27-.06-.53-.08-.8-.55-4.5-3.15-8.7-7.38-11.14-7.17-4.14-16.34-1.68-20.48,5.49Z"/>
        <g>
          <circle class="cls-2" cx="425.88" cy="149.9" r="149.9"/>
          <circle class="cls-7" cx="425.88" cy="149.9" r="119.92"/>
          <g>
            <ellipse class="cls-6" cx="469.78" cy="93.3" rx="9.99" ry="14.99" transform="translate(154.09 453.49) rotate(-60)"/>
            <ellipse class="cls-6" cx="381.97" cy="93.3" rx="14.99" ry="9.99" transform="translate(4.53 203.49) rotate(-30)"/>
          </g>
          <path class="cls-6" d="m427.41,139.52l20.71-24.86c1.09-1.3.16-3.28-1.54-3.28h-41.43c-1.7,0-2.62,1.98-1.54,3.28l20.71,24.86c.8.96,2.27.96,3.07,0Z"/>
        </g>
      </g>
      <g>
        <circle class="cls-1" cx="821.02" cy="141.29" r="14.74"/>
        <path class="cls-4" d="m851.28,112.22l-59.34,59.34c-.85.85-2.25.75-2.98-.2l-33.13-43.32c-11.28-14.75-9.9-35.57,3.23-48.7h0c13.13-13.13,33.95-14.51,48.69-3.23l43.32,33.13c.95.73,1.05,2.13.2,2.98Z"/>
        <path class="cls-4" d="m765.63,74.78l-11.12,11.12-8.34-8.34c-3.07-3.07-3.07-8.05,0-11.12h0c3.07-3.07,8.05-3.07,11.12,0l8.34,8.34Z"/>
      </g>
      <rect class="cls-5" y="41.47" width="88.88" height="6.45"/>
    </g>
  </g>
</svg>