<?xml version="1.0" encoding="UTF-8"?>
<svg id="Layer_2" data-name="Layer 2" xmlns="http://www.w3.org/2000/svg" viewBox="0 0 674.46 300">
  <defs>
    <style>
      .cls-1 {
        fill: #fafafa;
      }

      .cls-2 {
        fill: #232527;
      }

      .cls-3 {
        fill: #005ab8;
      }

      .cls-4 {
        fill: #ddeff9;
      }
    </style>
  </defs>
  <g id="Layer_1-2" data-name="Layer 1">
    <path class="cls-2" d="m672.45,58.17c1.56,2.69,2.18,5.66,1.98,8.55-.02.28-.05.55-.08.83-3.96,36.79-24.82,71.25-59.32,91.16-34.49,19.92-74.76,20.76-108.58,5.8-.27-.11-.54-.23-.79-.35-2.6-1.27-4.86-3.29-6.41-5.99-4.14-7.17-1.69-16.35,5.49-20.49,4.2-2.43,9.1-2.58,13.25-.86.26.11.51.22.77.33.02.01.04.02.06.03,25.33,11.11,55.42,10.44,81.21-4.45,25.79-14.89,41.42-40.61,44.46-68.11.03-.27.06-.53.08-.8.55-4.5,3.15-8.7,7.39-11.15,7.17-4.14,16.35-1.68,20.49,5.49Z"/>
    <path class="cls-2" d="m2.02,58.17C.46,60.87-.17,63.83.04,66.72c.02.28.05.55.08.83,3.96,36.79,24.82,71.25,59.32,91.16,34.49,19.92,74.76,20.76,108.58,5.8.27-.11.54-.23.79-.35,2.6-1.27,4.86-3.29,6.41-5.99,4.14-7.17,1.69-16.35-5.49-20.49-4.2-2.43-9.1-2.58-13.25-.86-.26.11-.51.22-.77.33-.02.01-.04.02-.06.03-25.33,11.11-55.42,10.44-81.21-4.45-25.79-14.89-41.42-40.61-44.46-68.11-.03-.27-.06-.53-.08-.8-.55-4.5-3.15-8.7-7.39-11.15-7.17-4.14-16.35-1.68-20.49,5.49Z"/>
    <g>
      <circle class="cls-1" cx="337.23" cy="150" r="150"/>
      <circle class="cls-4" cx="337.23" cy="150" r="120"/>
      <g>
        <ellipse class="cls-3" cx="381.17" cy="93.36" rx="10" ry="15" transform="translate(109.73 376.78) rotate(-60)"/>
        <ellipse class="cls-3" cx="293.3" cy="93.36" rx="15" ry="10" transform="translate(-7.39 159.16) rotate(-30)"/>
      </g>
      <path class="cls-3" d="m338.77,139.62l20.73-24.88c1.09-1.3.16-3.28-1.54-3.28h-41.46c-1.7,0-2.62,1.98-1.54,3.28l20.73,24.88c.8.96,2.27.96,3.07,0Z"/>
    </g>
  </g>
</svg>