<?xml version="1.0" encoding="UTF-8"?>
<svg id="Layer_2" data-name="Layer 2" xmlns="http://www.w3.org/2000/svg" viewBox="0 0 688.42 315.33">
  <defs>
    <style>
      .cls-1 {
        fill: #fafafa;
      }

      .cls-2 {
        fill: #c1714e;
      }

      .cls-3 {
        fill: #e2e2e2;
      }

      .cls-4 {
        fill: #232527;
      }

      .cls-5 {
        fill: #975d4a;
      }

      .cls-6 {
        fill: #005ab8;
      }

      .cls-7 {
        fill: #ddeff9;
      }
    </style>
  </defs>
  <g id="Layer_1-2" data-name="Layer 1">
    <g>
      <g>
        <path class="cls-4" d="m683.91,4.92c2.09,2.3,3.33,5.06,3.74,7.93.04.28.07.55.09.83,3.91,36.76-9.19,74.83-38.67,101.56-29.48,26.74-68.62,36.07-104.82,28.6-.29-.05-.57-.11-.85-.18-2.81-.69-5.44-2.19-7.53-4.49-5.56-6.13-5.1-15.61,1.03-21.17,3.59-3.26,8.34-4.45,12.76-3.64.28.06.55.11.82.16.02,0,.04.02.07.02,27.09,5.5,56.33-1.52,78.38-21.51,22.04-19.99,31.88-48.42,29.04-75.91-.03-.27-.05-.53-.09-.8-.41-4.51,1.24-9.16,4.86-12.45,6.13-5.56,15.61-5.1,21.17,1.03Z"/>
        <path class="cls-4" d="m29.14,146.55c-.95,2.96-.93,5.99-.13,8.76.08.27.17.53.26.8,11.64,35.09,39.29,64.34,77.19,76.5,37.9,12.16,77.39,4.48,107.27-17.28.24-.16.48-.34.7-.51,2.27-1.79,4.05-4.24,5-7.2,2.53-7.88-1.8-16.32-9.69-18.85-4.61-1.48-9.43-.6-13.12,1.96-.23.17-.45.33-.68.48-.02.02-.03.03-.06.04-22.39,16.21-51.92,21.9-80.26,12.81-28.33-9.09-49.04-30.91-57.81-57.12-.09-.26-.17-.51-.25-.76-1.49-4.28-4.92-7.83-9.57-9.33-7.88-2.53-16.32,1.81-18.85,9.69Z"/>
        <g>
          <circle class="cls-1" cx="375.93" cy="165.42" r="149.88"/>
          <circle class="cls-7" cx="375.93" cy="165.42" r="119.91"/>
          <g>
            <ellipse class="cls-6" cx="406.87" cy="100.82" rx="9.99" ry="14.99" transform="translate(186.53 457.42) rotate(-72.21)"/>
            <ellipse class="cls-6" cx="321.05" cy="119.39" rx="14.99" ry="9.99" transform="translate(3.03 246.64) rotate(-42.21)"/>
          </g>
          <path class="cls-6" d="m375.24,154.95l14.99-28.67c.79-1.5-.54-3.24-2.2-2.88l-40.48,8.76c-1.66.36-2.14,2.49-.81,3.53l25.5,19.91c.98.77,2.42.46,3-.65Z"/>
        </g>
      </g>
      <g>
        <path class="cls-3" d="m69.17,136.14H14.84c-.86,0-1.59-.65-1.68-1.51L0,12.01c-.11-1,.67-1.87,1.68-1.87h80.62c1,0,1.79.87,1.68,1.87l-13.14,122.62c-.09.86-.82,1.51-1.68,1.51Z"/>
        <path class="cls-5" d="m64.28,125.22H19.73c-.71,0-1.3-.54-1.38-1.25L7.57,22.61c-.09-.83.55-1.55,1.38-1.55h66.11c.82,0,1.46.72,1.38,1.55l-10.78,101.36c-.08.71-.67,1.25-1.38,1.25Z"/>
        <rect class="cls-2" x="14.22" y="32.82" width="25.2" height="25.2" rx="2" ry="2" transform="translate(16.26 -6.26) rotate(19.01)"/>
        <rect class="cls-2" x="37.35" y="10.98" width="25.2" height="25.2" rx="2" ry="2" transform="translate(18.48 -21.82) rotate(30)"/>
        <rect class="cls-2" x="44.23" y="41.71" width="25.2" height="25.2" rx="2" ry="2" transform="translate(-11 14.58) rotate(-13.34)"/>
      </g>
    </g>
  </g>
</svg>